<?xml version="1.0" encoding="utf-8"?>
<!-- Generator: Adobe Illustrator 21.1.0, SVG Export Plug-In . SVG Version: 6.00 Build 0)  -->
<svg version="1.1" id="Layer_1" xmlns="http://www.w3.org/2000/svg" xmlns:xlink="http://www.w3.org/1999/xlink" x="0px" y="0px"
	 viewBox="0 0 1354.6 126.4" style="enable-background:new 0 0 1354.6 126.4;" xml:space="preserve">
<style type="text/css">
	.st0{fill:#f00;}
	.st1{fill:#ff0;}
</style>
<g>
	<path class="st0" d="M20.2,99.4c-6.9,0-13.5,0-20.2,0c0-24.6,0-49,0-73.5c0.7-0.7,1.6-0.4,2.4-0.4c12,0,24,0,36,0
		c1.8,0,2.9,0.5,4,1.9c4.9,5.9,9.8,11.8,14.8,17.6c0.5,0.6,0.8,1.5,2.2,1.7c0-7,0-13.9,0-21c6.9,0,13.4,0,20.1,0
		c0,30.2,0,60.3,0,90.5c-1.6,0.6-2.9,0.3-4.2-0.9c-4.7-4.3-9.4-8.5-14.2-12.6c-1.1-1-1.6-2-1.5-3.4c0.1-6.4,0-12.8,0-19.2
		c0-1.1,0-2.2-0.7-3.1c-4.3-5.2-8.6-10.3-13.5-15.3c0,12.5,0,25,0,37.7c-6.8,0-13.4,0-20,0c-0.6-0.8-0.3-1.7-0.3-2.6
		c0-18.3-0.2-36.7,0.1-55c0.1-4.6-1.6-7.7-5-10.7C20.2,53.9,20.2,76.5,20.2,99.4z"/>
	<path class="st0" d="M1092.1,57.5c-3.4,3.7-6.6,7.1-10,10.9c-3.4-3.7-6.6-7.2-10.4-11.3c0,14.6,0,28.4,0,42.4c-6.8,0-13.3,0-19.8,0
		c-0.7-0.8-0.4-1.7-0.4-2.6c0-17.8,0-35.7,0-53.5c0-1.7-0.5-3-1.6-4.2c-2.6-2.8-5-5.8-7.6-8.6c-1.3-1.4-1.7-2.8-1.3-4.5
		c0.6-0.6,1.4-0.4,2.1-0.4c8.5,0,17,0,25.5,0c1.6,0,2.6,0.5,3.6,1.7c3.1,3.6,6.3,7.1,9.2,10.5c1.1,0.1,1.5-0.6,1.9-1.1
		c2.9-3.2,5.7-6.5,8.6-9.7c1.7-1.9,3.6-2,5.3-0.1c4.7,5,9.4,10.1,14.2,15.2c0.7,0.7,1,1.5,1,2.4c0,24.5,0,49,0,73.5
		c0,0.2-0.1,0.4-0.3,1c-3.1-2.8-6.1-5.4-9.1-8c-3-2.7-5.9-5.4-9-8c-1.3-1.1-1.8-2.4-1.8-4.1c0.1-12.7,0-25.5,0-38.2
		C1092.6,59.6,1092.8,58.7,1092.1,57.5z"/>
	<path class="st0" d="M426.5,118.1c-9.7-11.9-19.2-23.4-28.6-35c-0.2,0.1-0.4,0.1-0.6,0.2c0,5.3,0,10.7,0,16.2c-6.9,0-13.4,0-20.1,0
		c0-24.6,0-49.1,0-73.7c6.6,0,13.1,0,20,0c0,3.1,0,6.1,0,9.1c0.2,0.1,0.4,0.2,0.6,0.3c1.9-2.5,3.8-5,5.7-7.5c2.2-3,3.8-3,6-0.1
		c8.6,11.3,17.2,22.5,26,34.1c-5.2,4.3-10.5,8.6-16,13.1c7.6,9.5,15.1,18.9,22.8,28.4C437.1,108.1,431.9,112.9,426.5,118.1z
		 M399.5,61.6c3.5,0,6.4,0,9.9,0c-2-2.1-3-4.3-5.2-5.9C402.6,57.7,401.2,59.5,399.5,61.6z"/>
	<path class="st0" d="M214.1,99.4c0-24.6,0-49.1,0-73.7c6.6,0,13.2,0,20,0c0,3.1,0,6.1,0,9.2c0.2,0.1,0.4,0.2,0.6,0.3
		c2-2.6,4-5.1,5.9-7.7c2-2.7,3.7-2.7,5.7-0.1c8.2,10.8,16.5,21.6,24.7,32.4c0.4,0.6,0.8,1.2,1.4,2c-5.3,4.3-10.5,8.6-15.9,13
		c7.6,9.5,15.1,18.9,22.8,28.5c-5.3,5-10.5,9.8-15.9,14.9c-9.6-11.8-19.1-23.4-29-35.5c0,6,0,11.3,0,16.8
		C227.4,99.4,220.9,99.4,214.1,99.4z M241.4,55.6c-2,1.9-3.4,3.8-5,6c3.3,0.2,6.3,0.2,9.7,0C244.4,59.5,243,57.7,241.4,55.6z"/>
	<path class="st0" d="M1186.2,66.5c-2.5-2.6-4.9-5-7.5-7.6c4.3-5.4,8.6-10.8,13.1-16.4c2.6,2.4,4.9,4.7,7.2,6.8
		c1.4-0.4,1.9-1.6,2.6-2.5c5.2-6.5,10.3-13.1,15.4-19.7c0.7-1,1.5-1.7,2.8-1.7c6.7,0.1,13.5,0,20.2,0c0.3,0,0.6,0.1,1.1,0.2
		c0,24.5,0,49,0,73.4c-0.6,0.7-1.4,0.4-2.1,0.4c-5.2,0-10.5,0-15.7,0c-1.6,0-2.8-0.5-4-1.6c-4.9-4.8-9.8-9.5-14.8-14.2
		c-0.8-0.8-1.7-1.6-2.9-2.7c-5.2,6.7-10.2,13.2-15.5,20c-5-5.3-9.8-10.4-14.6-15.6C1176.5,79,1181.4,72.8,1186.2,66.5z M1220.9,71.1
		c0-5.5,0-10.2,0-15.6c-2.6,3.2-4.7,5.9-6.4,8.1C1216.6,66.1,1218.5,68.3,1220.9,71.1z"/>
	<path class="st0" d="M139,85.5c5-6.4,9.8-12.7,14.7-19c-2.6-2.5-5-4.9-7.7-7.5c4.4-5.6,8.7-11,13.2-16.6c2.5,2.4,4.9,4.6,7.2,6.8
		c1.4-0.3,1.8-1.4,2.5-2.2c5.2-6.6,10.4-13.2,15.6-19.9c0.6-0.7,1-1.6,2.1-1.6c7.3,0,14.6,0,22.1,0c0,24.7,0,49.1,0,73.6
		c-0.7,0.7-1.6,0.4-2.4,0.4c-5.1,0-10.2,0-15.2,0c-1.8,0-3.1-0.5-4.4-1.8c-4.9-4.8-9.9-9.6-14.9-14.4c-0.8-0.7-1.4-1.7-2.8-2
		c-5,6.4-10,12.9-15.2,19.7C148.6,95.8,143.9,90.7,139,85.5z M188.5,56.2c-0.2-0.1-0.4-0.1-0.5-0.2c-2.1,2.7-4.3,5.4-6.5,8.2
		c2.4,2.2,4.5,4.3,7.1,6.7C188.5,65.6,188.5,60.9,188.5,56.2z"/>
	<path class="st0" d="M462.1,81.1c-5.3,6.8-10.3,13.3-15.5,20c-5-5.3-9.7-10.4-14.6-15.6c4.9-6.3,9.7-12.6,14.8-19.1
		c-2.6-2.4-5.2-4.7-7.9-7.2c4.6-5.8,8.9-11.2,13.3-16.7c2.6,2.4,5,4.6,7.6,7.1c3.1-3.9,6-7.6,8.9-11.3c2.9-3.7,5.8-7.5,8.8-11.2
		c0.6-0.8,1.2-1.6,2.4-1.6c7.2,0,14.3,0,21.7,0c0,24.6,0,49.2,0,74c-3.2,0-6.5-0.4-9.6,0.1c-7.8,1.2-13.5-1.6-18.4-7.5
		C470.3,88.2,466.2,84.9,462.1,81.1z M481.5,56.2c-0.2-0.1-0.4-0.1-0.5-0.2c-2.1,2.7-4.3,5.4-6.5,8.2c2.4,2.2,4.5,4.3,7.1,6.7
		C481.5,65.6,481.5,60.9,481.5,56.2z"/>
	<path class="st0" d="M604.3,99.3c0-24.5,0-49,0-73.7c2.3,0,4.4,0,6.5,0c6.3,0,12.7,0.1,19,0c1.8,0,2.9,0.5,3.9,2
		c10.7,16.4,21.5,32.8,32.4,49.2c0.9,1.3,0.9,2.2,0,3.5c-4.2,5.8-8.2,11.7-12.3,17.6c-0.7,1-1.4,1.8-2.8,1.8c-15.3,0-30.7,0-46-0.1
		C604.8,99.5,604.7,99.4,604.3,99.3z M624.6,52.3c0,9.2,0,17.8,0,26.2c5.8,0,11.3,0,17.3,0C636.1,69.7,630.5,61.3,624.6,52.3z"/>
	<path class="st0" d="M908.3,25.6c6.6,0,13,0,19.8,0c0,13.9,0,27.6,0,41.4c0.2,0.1,0.4,0.2,0.6,0.3c3.2-3.4,6.4-6.9,9.8-10.6
		c3.4,3.6,6.6,7.1,9.9,10.6c1-0.9,0.6-1.9,0.6-2.7c0-12.2,0.1-24.3,0-36.5c0-1.9,0.4-2.6,2.5-2.6c5.7,0.1,11.5,0,17,0
		c0.8,0.8,0.5,1.6,0.5,2.3c0,17.4,0,34.8,0,52.2c0,1.4-0.4,2.5-1.4,3.5c-4.5,4.7-8.9,9.5-13.3,14.2c-2.3,2.5-3.9,2.4-6.2-0.2
		c-3.1-3.4-6.2-6.9-9.6-10.6c-2.3,2.5-4.4,4.8-6.5,7.1c-1.2,1.4-2.4,2.8-3.7,4.1c-1.6,1.7-3.6,1.7-5.2,0.1
		c-4.9-5.2-9.6-10.4-14.5-15.5c-0.6-0.6-0.7-1.2-0.7-2c0-18.2,0-36.3,0-54.5C908.1,26.2,908.2,26,908.3,25.6z"/>
	<path class="st0" d="M1117.8,25.5c2.8,0,5.4,0,8,0c11.2,0,22.3,0,33.5,0c1.8,0,2.9,0.6,3.8,2.1c2.6,4.2,5.3,8.3,8.1,12.3
		c1,1.5,0.9,2.4-0.3,3.7c-2.8,3.3-5.5,6.7-8.3,10.3c4,3.5,7.9,6.9,12,10.4c-1.1,2.3-2.9,3.9-4.4,5.8c-7.7,9.3-15.4,18.6-23.1,28
		c-0.7,0.9-1.5,1.5-2.7,1.5c-8.7,0-17.3,0-26-0.1c-0.1,0-0.3-0.1-0.6-0.3C1117.8,74.8,1117.8,50.3,1117.8,25.5z M1153.5,58.1
		c-5.3,0-9.7,0-14.2,0c-0.7,0-1.3,0.2-1.4,1.1c0,5.3,0,10.5,0,15.8c0.2,0.1,0.4,0.2,0.6,0.3C1143.4,69.7,1148.2,64.2,1153.5,58.1z
		 M1143.5,44.4c-5.8-0.7-6-1.2-5.1,5.7C1140.4,48.4,1141.9,46.5,1143.5,44.4z"/>
	<path class="st0" d="M1010.2,99.6c-7.6,0-15.2,0-22.7,0c-1.4,0-2.5-0.3-3.5-1.5c-4.1-5.1-8.3-10.2-12.5-15.2
		c-1.1-1.4-1.1-2.3-0.1-3.7c12-17.2,23.9-34.5,35.8-51.8c1.9-2.8,4.6-2.8,6.5,0.1c11.8,17.2,23.6,34.3,35.4,51.4
		c1.1,1.6,1.2,2.7-0.2,4.3c-4.1,4.8-8.1,9.7-12.1,14.6c-1.1,1.3-2.2,1.8-3.8,1.8C1025.4,99.5,1017.8,99.6,1010.2,99.6z M1024,78.6
		c-4.8-6.8-9.2-13.1-13.8-19.7c-4.6,6.6-9,13-13.7,19.7C1006,78.6,1014.7,78.6,1024,78.6z"/>
	<path class="st0" d="M140.2,25.7c0,6.7,0,13.4,0,20.4c-10.7,0-21.4,0-32.6,0c13.6,19.1,27,37.8,39.6,55.5
		c-5.1,5.8-10,11.2-15.1,16.9c-4.5-6.5-8.6-12.4-12.7-18.4c-12.5-18.1-25-36.2-37.5-54.2c-1.2-1.7-1.2-2.7,0.2-4.2
		c4.2-4.8,8.3-9.8,12.3-14.8c0.7-0.9,1.5-1.4,2.7-1.4c14,0,28,0,42,0C139.4,25.5,139.7,25.7,140.2,25.7z"/>
	<path class="st0" d="M296.7,46.7c13.3,18.6,26.5,37.2,39.2,55c-5.1,5.7-10,11.2-15.2,16.8c-5.7-8.2-10.9-15.9-16.2-23.5
		c-11.4-16.4-22.7-32.9-34.1-49.3c-1.1-1.5-1-2.5,0.2-3.9c4.2-4.9,8.2-9.8,12.3-14.8c0.8-0.9,1.6-1.6,2.9-1.6c14,0,28,0,42,0
		c0.3,0,0.6,0.1,1.1,0.2c0,6.7,0,13.3,0,20.2c-10.6,0-21.2,0-31.8,0C297,46.2,296.9,46.4,296.7,46.7z"/>
	<path class="st0" d="M1296.6,46.1c-5.5,0-10.5,0-15.5,0c-0.8,0.9-0.5,1.7-0.5,2.5c0,13.3,0,26.7,0,40c0,1.7,0.5,2.9,1.9,4
		c3.5,2.5,6.9,5.3,10.3,7.9c0.8,0.6,1.6,1.2,1.6,2.4c0,7.7,0,15.5,0,23.3c-1.9,0.6-3.4,0.3-4.9-0.9c-9.2-7.2-18.4-14.4-27.6-21.4
		c-1.4-1.1-1.4-2.3-1.4-3.7c0-16.9,0-33.8,0-50.7c0-1,0.2-2-0.4-3.2c-5.3,0-10.8,0-16.4,0c0-7,0-13.6,0-20.3
		c0.8-0.6,1.6-0.4,2.3-0.4c16,0,32,0,48-0.1c2,0,2.8,0.5,2.7,2.6C1296.5,34,1296.6,39.9,1296.6,46.1z"/>
	<path class="st0" d="M520.6,46.1c-5.4,0-10.9,0-16.4,0c0-6.9,0-13.5,0-20.2c0.8-0.7,1.8-0.4,2.6-0.4c15.8,0,31.7,0,47.5-0.1
		c2.4,0,2.9,0.7,2.9,3c-0.1,5.7,0,11.5,0,17.6c-5.3,0-10.5,0-15.4,0c-0.8,1.1-0.6,1.9-0.6,2.7c0,13.2,0,26.5,0,39.7
		c0,1.8,0.5,3.1,2,4.2c3.5,2.5,6.9,5.3,10.3,7.9c0.7,0.6,1.5,1.1,1.5,2.1c0,7.8,0,15.6,0,23.5c-2,0.5-3.5,0.2-5-1
		c-9.2-7.2-18.4-14.4-27.6-21.4c-1.4-1.1-1.3-2.3-1.3-3.7c0-16.9,0-33.8,0-50.7C521,48.3,521.1,47.3,520.6,46.1z"/>
	<path class="st0" d="M1349.7,25.7c0,6.9,0,13.5,0,20.4c-6.2,0-12.3,0-18.9,0c1.5,2.1,2.7,3.7,3.9,5.4c6.3,8.5,12.7,16.9,19,25.4
		c1,1.3,1.2,2.2,0.2,3.7c-4.2,5.8-8.4,11.6-12.5,17.5c-0.8,1.1-1.7,1.5-2.9,1.5c-14,0-28,0-42,0c-1.5,0-2.1-0.6-2-2.1
		c0.1-1.1,0.5-2.1,1.1-3c2.9-4.7,5.8-9.3,8.6-14.1c0.8-1.3,1.8-1.8,3.3-1.7c6.1,0.1,12.2,0,18.2,0c0.8,0,1.6,0,2.5,0
		c0-1.6-1-2.3-1.7-3.2c-7.6-10.4-15.2-20.8-22.9-31.2c-1-1.3-1.1-2.3-0.2-3.8c2.6-4.4,5.1-9,7.6-13.5c0.6-1.1,1.3-1.6,2.5-1.6
		c11.7,0,23.3,0,35,0C1348.9,25.5,1349.2,25.6,1349.7,25.7z"/>
	<path class="st0" d="M579.6,68.6c0,3.5,0,6.6,0,10.1c5.8,0,11.4,0,17.1,0c3.5,0,3.5,0,3.5,3.5c0,5-0.1,10,0,15
		c0,1.9-0.6,2.4-2.4,2.4c-8.3-0.1-16.7-0.1-25,0c-1.3,0-2.2-0.4-3-1.4c-3.2-4.1-6.5-8.2-9.8-12.3c-0.5-0.7-0.8-1.4-0.8-2.3
		c0-19.1,0-38.1,0-57.2c0-0.2,0.1-0.3,0.2-0.7c13.4,0,26.9,0,40.6,0c0,6.7,0,13.3,0,20.3c-6.7,0-13.5,0-20.2,0
		c-0.6,1.6-0.4,2.9-0.2,4.5c6.7,0,13.4,0,20,0c0.9,1.5,0.5,2.8,0.5,4.1c0.1,3.6,0,7.2,0,10.7c0,3.3,0,3.3-3.2,3.3
		c-4.9,0-9.8,0-14.7,0C581.4,68.6,580.6,68.6,579.6,68.6z"/>
	<path class="st0" d="M332.3,25.6c13.5,0,26.9,0,40.5,0c0,6.7,0,13.4,0,20.4c-6.7,0-13.5,0-20.2,0c-1.1,4.1-0.8,4.6,2.9,4.6
		c5.7,0,11.4,0,17.5,0c0,5.7,0,11.2,0,16.6c0,1.5-1.1,1.4-2.1,1.4c-5.4,0-10.8,0.1-16.2,0c-2,0-2.8,0.5-2.5,2.5c0.2,2.4-1,5.4,0.5,7
		c1.5,1.6,4.6,0.5,6.9,0.6c3.7,0.1,7.5,0.1,11.2,0c1.7,0,2.3,0.5,2.3,2.3c-0.1,5.4-0.1,10.8,0,16.2c0,1.7-0.4,2.4-2.2,2.4
		c-8.4-0.1-16.8-0.1-25.2,0c-1.4,0-2.3-0.5-3.1-1.6c-3.1-4-6.3-8-9.5-11.9c-0.6-0.7-0.9-1.5-0.9-2.5c0-19,0-38,0-57
		C332.1,26.4,332.2,26.1,332.3,25.6z"/>
</g>
<path d="M812.6,0h11.5c5.4,0.6,10.9,1.2,15.9,3.5c6.3,2.8,13.1,5.4,18,10.4c4.3,4.3,7.8,9.3,11,14.4c1.9,3.2,2.3,6.9,3.7,10.2
	c1.4,2.7,3.1,5.2,4,8.2c1.7,6.3,3.2,12.7,4.1,19.2v9.3c-2.7,5-7.8,7.6-12.5,10.2c-5.3,3-11.4,4.1-17,6.3c0.7,5.6,4.2,10.5,4.5,16.3
	c0.3,2.7-1.2,5.5-3.5,6.8c-4.4,1.2-9.1,0.7-13.6,1.2c-3.2,0.8-6.3,2.5-9.7,2.7c-8.2,0.9-16.5-0.1-24.7,1.2h-0.2
	c0-0.5-0.1-1.1-0.1-1.6c-1.6,0.2-3.2,0.4-4.8,0.6c0-0.5,0.1-1.5,0.1-2c-1-0.1-2-0.2-3-0.2c2.2-2.7,4.4-5.7,8-6.6
	c3.5-1.6,7.4-1.2,11.1-2.1c0.7-2.7-0.2-5.4-0.7-8c-0.7-2.9-1.2-5.8-1.8-8.8c-5.5,0.8-11.3,1.8-16.8,0.3c-3.5-0.6-6.6-2.4-9.7-4
	c0,4.4,1,8.7,1.7,13.1c0.7,4-0.5,8.5-3.7,11c-2.8,1.2-6,1.2-8.9,2.1c-3.3,0.7-5.4,4.2-8.9,4.3c-5.2,0.9-10.5,0.7-15.8,0.7
	c-5.5-0.2-11-0.3-16.4-1.5c1.2-2.7,2.7-5.5,5.6-6.5c4.2-1.8,9.7-3.2,11.2-8.2c0.9-4.9-0.5-9.8-1.7-14.6c-1.9-3.4-5.3-5.7-8.5-7.6
	c-4.3-2.8-9.7-3.4-14.7-4.4c-6.6-1.3-12.8,2-19.3,2.1c-3.8-0.3-7.1-2.3-10.4-4c-2.4-1.2-4.9-2.8-5.8-5.5v-2c0.9-3.3,1.7-6.7,3-9.9
	c2.3-4.8,4.7-9.6,7.4-14.1c3.5-5.8,9.4-9.5,15-13.1c4.6-2.9,8.3-7,11.9-11.2c1.5-1.8,2.8-4.8,5.7-4.3c0.8,1,1,2.4,1.2,3.7
	c2.5-1.3,4.9-3.5,7.9-3.2c2.5,1.3,1.9,4.8,2.5,7c4.7-1.5,8.5-5,13.1-6.7c6.1-2.3,12.7-2.8,18.8-5c4.7-1.7,9.5-2.8,14.4-4.1
	C798.2,3.4,805.3,1.5,812.6,0L812.6,0z"/>
<path class="st1" d="M817.8,7.7c7-1,14.2-1.3,21.1,0.5c7.2,1.9,13.9,5.2,20.3,8.9c3,2.5,5.1,5.8,7.1,9c1.8,5.6,2.3,11.5,3.6,17.2
	c1.4,7.7,4.2,15.4,2.2,23.2c-0.9,6.2-5.4,11.2-10.5,14.6c-4.2,2.7-7.8,6.1-10.5,10.3c-0.8,1.3-0.7,3.1-0.1,4.5
	c1.7,4.5,4,9.1,3.7,14.1c-0.3,1.5-1.1,3.2-2.7,3.8c-4.6,1.5-9.5,1.5-14.2,1.3c0.9-1.5,1.8-2.9,2.6-4.4c1.9-3.6,2.1-7.8,4-11.5
	c1-2.2,2.3-4.2,3.5-6.3c-5.5,4-8.2,10.6-11.7,16.2c-1.7,2.8-4.2,5.3-7.2,6.6c-5.8,2.4-12.2,2.7-18.4,2.8c-0.3-0.6-0.7-1.3-1.1-1.9
	c-2.8,0.7-5.3-0.8-7.9-1.3c-0.4-0.8-0.8-1.5-1.2-2.2c3.3-2,7.1-3.3,11-3.4c1.7-0.2,4.7,0.1,5.2-2.2c-0.3-6.1-2.7-11.9-3.2-17.9
	c0.3-6.8,4.9-12.4,7.3-18.5c-2.5,1.9-4.6,4.2-6.9,6.3c-5.7,4.2-12.7,6.5-19.7,6.5c-1.2,0-2.7-0.7-2.8-2.1c-0.1-1.5,0.3-3,0.3-4.5
	c0.4-2.6-0.7-5.1-1.6-7.4c-0.4,0.2-0.8,0.4-1.2,0.6c-0.1,3,0.3,6.1-0.7,9c-0.6,2.4-1.9,4.5-2.6,6.9c-1,6,1.8,11.8,1.6,17.9
	c-0.3,2.6-1.5,5.4-3.8,7c-3.4,1.1-7,1.2-10.5,1.5c1.8-6.9,4.6-13.5,7.3-20.1c-2.7,3.6-5.2,7.3-7.2,11.3c-1.4,2.6-3,5.2-5.5,6.8
	c-5.1,3.7-11.5,4.8-17.5,5.6c-2.5,0.5-4.7-1-7.2-0.7c-0.9-1.4-2.4-2.2-3.7-3.2c3.8-2.2,8.6-2.9,11.5-6.5c2.9-4,1.5-9.2,0.8-13.7
	c-0.7-2.3-0.5-5.1-2.5-6.7c-1.7-1.8-3.4-3.7-5.7-4.7c-2.5-1.1-4.4-3.5-7.3-3.8c-4.9-1-9.8-2.7-14.9-2c-6,0.1-12,3.7-17.9,1.2
	c-1.7-0.6-4.1-1-4.7-2.9c-0.4-2.5-0.7-5.2-1.7-7.5c-0.8-1.7-3-0.9-4.5-0.9c1.7-7.6,5.6-14.3,9.4-20.9c3.6-6.3,9.8-10.5,15.9-14.2
	c4.8-3.4,9.2-7.5,12.7-12.3c0.8-1.1,1.8-2.5,3.4-2.5c0.3,1.5,0.2,3.1,0.1,4.7c3-2,6.1-3.8,9.7-4.4c0.8,2.3,1.3,5,0.6,7.4
	c-0.7,3.4-1.3,7-3.2,10c-1.2,1.6-2.6,2.9-4,4.3c0.5,4,1.2,8,3,11.5l0.9-3.3c0.8,0.3,1.5,0.6,2.3,0.8c0.4-3,0.5-6.1,0.9-9.2
	c0.4,0.8,1.3,2.6,1.8,3.5c0.5-3.1,0.4-6.2,1.1-9.2c1.3,3.8,1,8,2.7,11.7c1.2-4,0.7-8.4,2.5-12.3c1.3,3.9,1,8.1,2.3,12
	c0.3,0.7,1,1.3,1.5,1.8c0.8-6-0.3-12.5,2.6-18.1c9.2-1.2,17.9-4.8,26.3-8.5C795.1,13.5,806.3,10.1,817.8,7.7z"/>
<path d="M739.3,16.9c1.1-0.5,3.1-0.7,3.3,0.9c0.5,5.8-0.2,12.6-4.7,16.9c-1.4,1.5-3.1,2.7-4.9,3.5c-1,0.5-2.7-0.5-2-1.6
	c1.3-2,3.6-3.3,4.6-5.7c-2.2,1.1-4.2,3.4-6.9,2.6c-1.8-1.3-2.4-4.5-1-6.3C730.6,23,734.5,19.1,739.3,16.9z M705.9,49.4
	c1.7-0.5,3.4-0.4,5.1-0.4c-2.6,0.8-5.5,0.9-7.3,3.2C704.3,51.2,704.7,49.9,705.9,49.4z"/>
<path d="M705.5,51.3c1.5-0.5,3.1-0.3,4.6-0.7l-2.1,5.1c1.3-1.6,2.2-3.5,3.5-5.1c0,1.7,0.9,4-0.9,5.1c-2.2,1.2-4.5-0.1-6.4-1.1
	C704.7,53.5,704.7,52.2,705.5,51.3z"/>
</svg>
